<svg width="32" height="32" viewBox="0 0 32 32" fill="#FFFFFF" xmlns="http://www.w3.org/2000/svg">
<path d="M0.890183 0H0V15.9427H0.890183V0Z" fill="#FE6868"/>
<path d="M2.66557 0H1.77539V15.9427H2.66557V0Z" fill="#FE6868"/>
<path d="M13.5765 17.6569H4.44626V0H3.55607V17.6569H0.708418C0.316924 17.6569 0 17.9727 0 18.3629V31.1887C0 31.5789 0.316924 31.8948 0.708418 31.8948H13.5765C13.968 31.8948 14.2849 31.5789 14.2849 31.1887V18.3629C14.2849 17.9727 13.968 17.6569 13.5765 17.6569ZM0.894844 30.9982V18.5488H3.55607V30.9982H0.894844ZM4.4416 30.9982V18.5488H10.4678L4.45558 24.583V24.6713L10.617 31.0029H4.44626L4.4416 30.9982ZM13.3854 30.9982H11.838L5.59744 24.583L11.6423 18.5488H13.3854V30.9982Z" fill="#0E1A42"/>
<path d="M7.99739 0H6.22168V15.9427H7.99739V0Z" fill="#BF67FF"/>
<path d="M10.6675 0H9.77734V15.9427H10.6675V0Z" fill="#BF67FF"/>
<path d="M13.3294 0H11.5537V15.9427H13.3294V0Z" fill="#BF67FF"/>
<path d="M15.1099 0H14.2197V15.9427H15.1099V0Z" fill="#7F40FE"/>
<path d="M16.8902 0H16V31.8948H16.8902V0Z" fill="#7F40FE"/>
<path d="M19.5562 0H18.666V31.8948H19.5562V0Z" fill="#7F40FE"/>
<path d="M22.2171 0H20.4414V31.8948H22.2171V0Z" fill="#525CE5"/>
<path d="M24.888 0H23.1123V31.8948H24.888V0Z" fill="#525CE5"/>
<path d="M26.6675 0H25.7773V31.8948H26.6675V0Z" fill="#3C06E5"/>
<path d="M30.22 0H28.4443V31.8948H30.22V0Z" fill="#3C06E5"/>
<path d="M32.0005 0H31.1104V31.8948H32.0005V0Z" fill="#3C06E5"/>
</svg>
