<svg width="29" height="28" viewBox="0 0 29 28" fill="none" xmlns="http://www.w3.org/2000/svg">
<path d="M0.780233 0H0V13.9959H0.780233V0Z" fill="#FE6868"/>
<path d="M2.33663 0H1.5564V13.9959H2.33663V0Z" fill="#FE6868"/>
<path d="M11.8996 15.5007H3.89708V0H3.11685V15.5007H0.620919C0.277779 15.5007 0 15.778 0 16.1206V27.3801C0 27.7227 0.277779 28 0.620919 28H11.8996C12.2427 28 12.5205 27.7227 12.5205 27.3801V16.1206C12.5205 15.778 12.2427 15.5007 11.8996 15.5007ZM0.784318 27.2129V16.2837H3.11685V27.2129H0.784318ZM3.893 27.2129V16.2837H9.17489L3.90525 21.5811V21.6586L9.30561 27.217H3.89708L3.893 27.2129ZM11.7321 27.2129H10.3759L4.90607 21.5811L10.2043 16.2837H11.7321V27.2129Z" fill="white"/>
<path d="M7.00987 0H5.45349V13.9959H7.00987V0Z" fill="#BF67FF"/>
<path d="M9.35055 0H8.57031V13.9959H9.35055V0Z" fill="#BF67FF"/>
<path d="M11.6831 0H10.1267V13.9959H11.6831V0Z" fill="#BF67FF"/>
<path d="M13.2436 0H12.4633V13.9959H13.2436V0Z" fill="#7F40FE"/>
<path d="M14.804 0H14.0238V28H14.804V0Z" fill="#7F40FE"/>
<path d="M17.1406 0H16.3604V28H17.1406V0Z" fill="#7F40FE"/>
<path d="M19.4731 0H17.9167V28H19.4731V0Z" fill="#525CE5"/>
<path d="M21.8138 0H20.2574V28H21.8138V0Z" fill="#525CE5"/>
<path d="M23.3743 0H22.5941V28H23.3743V0Z" fill="#3C06E5"/>
<path d="M26.4871 0H24.9307V28H26.4871V0Z" fill="#3C06E5"/>
<path d="M28.0476 0H27.2673V28H28.0476V0Z" fill="#3C06E5"/>
</svg>
