<svg width="28" height="28" viewBox="0 0 28 28" fill="none" xmlns="http://www.w3.org/2000/svg">
<path d="M23.6873 3.67267L11.0083 16.3517C10.6665 16.6934 10.1124 16.6934 9.77069 16.3517L4.31271 10.8937L0 15.2064L8.23304 23.4396C8.80496 24.0114 9.58062 24.3327 10.3894 24.3327C11.1982 24.3327 11.9738 24.0114 12.5458 23.4396L28 7.98532L23.6873 3.67267Z" fill="#A5EB78"/>
<path d="M26.5738 6.55908L10.2588 22.8741C9.8108 23.3217 9.24468 23.6326 8.62659 23.7705C9.14179 24.136 9.75777 24.3324 10.3894 24.3327C11.1982 24.3327 11.9739 24.0114 12.5458 23.4395L28 7.98522L26.5738 6.55908Z" fill="#152548"/>
</svg>
