<svg width="139" height="28" viewBox="0 0 139 28" fill="none" xmlns="http://www.w3.org/2000/svg">
<g clip-path="url(#clip0_1_4111)">
<path d="M47.725 22.0583H46.1931L38.2274 13.8613V22.0583H37.104V5.97437H38.2274V13.7635L45.9725 5.97437H47.4595L39.6694 13.7635L47.725 22.0583Z" fill="white"/>
<path d="M63.5502 13.9918C63.5502 16.5446 62.913 18.5633 61.6344 20.0477C60.3558 21.5321 58.591 22.2743 56.3443 22.2743C54.0976 22.2743 52.3451 21.5321 51.0665 20.0477C49.7879 18.5633 49.1506 16.5365 49.1506 13.9714C49.1506 11.4063 49.7961 9.39577 51.0828 7.92767C52.3737 6.45549 54.1343 5.72144 56.3647 5.72144C58.5951 5.72144 60.3721 6.45957 61.6425 7.9399C62.913 9.41616 63.5502 11.4348 63.5502 13.9958V13.9918ZM50.372 13.9918C50.372 16.2959 50.8868 18.0739 51.9162 19.334C52.9456 20.5901 54.4203 21.2222 56.3443 21.2222C58.2683 21.2222 59.7675 20.5982 60.7888 19.3503C61.8141 18.1024 62.3247 16.3163 62.3247 13.9918C62.3247 11.6673 61.8141 9.89737 60.7888 8.66172C59.7634 7.42607 58.2888 6.8062 56.3647 6.8062C54.4407 6.8062 52.9701 7.43015 51.9284 8.67803C50.8908 9.92592 50.368 11.6958 50.368 13.9918H50.372Z" fill="white"/>
<path d="M76.949 10.5948C76.949 12.1486 76.422 13.3434 75.364 14.1713C74.306 14.9991 72.8068 15.4151 70.8664 15.4151H68.3746V22.0583H67.2512V5.97437H71.1973C75.0331 5.97437 76.949 7.51587 76.949 10.5948ZM68.3746 14.4445H70.5887C72.4024 14.4445 73.7137 14.1468 74.5225 13.5473C75.3313 12.9479 75.7357 11.9814 75.7357 10.6397C75.7357 9.39994 75.3518 8.48238 74.5879 7.8829C73.824 7.28342 72.6393 6.98573 71.038 6.98573H68.3705V14.4445H68.3746Z" fill="white"/>
<path d="M93.9957 13.9918C93.9957 16.5446 93.3584 18.5633 92.0798 20.0477C90.8012 21.5321 89.0365 22.2743 86.7897 22.2743C84.543 22.2743 82.7905 21.5321 81.5119 20.0477C80.2333 18.5633 79.5961 16.5365 79.5961 13.9714C79.5961 11.4063 80.2415 9.39577 81.5283 7.92767C82.8191 6.45549 84.5798 5.72144 86.8102 5.72144C89.0406 5.72144 90.8175 6.45957 92.088 7.9399C93.3584 9.41616 93.9957 11.4348 93.9957 13.9958V13.9918ZM80.8175 13.9918C80.8175 16.2959 81.3322 18.0739 82.3616 19.334C83.391 20.5901 84.8657 21.2222 86.7897 21.2222C88.7138 21.2222 90.213 20.5982 91.2342 19.3503C92.2595 18.1024 92.7702 16.3163 92.7702 13.9918C92.7702 11.6673 92.2595 9.89737 91.2342 8.66172C90.2089 7.42607 88.7342 6.8062 86.8102 6.8062C84.8861 6.8062 83.4155 7.43015 82.3739 8.67803C81.3363 9.92592 80.8134 11.6958 80.8134 13.9918H80.8175Z" fill="white"/>
<path d="M102.051 13.0702C103.902 13.0702 105.291 13.4209 106.218 14.1223C107.145 14.8238 107.607 15.9289 107.607 17.4378C107.607 18.9467 107.149 20.06 106.234 20.8593C105.319 21.6586 104.012 22.0583 102.305 22.0583H97.6967V5.97437H106.745V7.03058H98.8201V13.0702H102.047H102.051ZM98.8241 21.0673H102.121C103.567 21.0673 104.641 20.7777 105.34 20.1946C106.038 19.6114 106.385 18.6938 106.385 17.4378C106.385 16.1818 106.034 15.3621 105.327 14.8401C104.621 14.3181 103.481 14.0571 101.9 14.0571H98.8241V21.0632V21.0673Z" fill="white"/>
<path d="M124.674 13.9918C124.674 16.5446 124.037 18.5633 122.758 20.0477C121.48 21.5321 119.715 22.2743 117.468 22.2743C115.221 22.2743 113.469 21.5321 112.19 20.0477C110.912 18.5633 110.274 16.5365 110.274 13.9714C110.274 11.4063 110.92 9.39577 112.207 7.92767C113.497 6.45549 115.258 5.72144 117.488 5.72144C119.719 5.72144 121.496 6.45957 122.766 7.9399C124.037 9.41616 124.674 11.4348 124.674 13.9958V13.9918ZM111.496 13.9918C111.496 16.2959 112.011 18.0739 113.04 19.334C114.069 20.5901 115.544 21.2222 117.468 21.2222C119.392 21.2222 120.891 20.5982 121.913 19.3503C122.938 18.1024 123.448 16.3163 123.448 13.9918C123.448 11.6673 122.938 9.89737 121.913 8.66172C120.887 7.42607 119.412 6.8062 117.488 6.8062C115.564 6.8062 114.094 7.43015 113.052 8.67803C112.015 9.92592 111.492 11.6958 111.492 13.9918H111.496Z" fill="#9A67FF"/>
<path d="M139 22.0583H137.468L129.502 13.8613V22.0583H128.379V5.97437H129.502V13.7635L137.248 5.97437H138.735L130.944 13.7635L139 22.0583Z" fill="#9A67FF"/>
<path d="M0.780233 0H0V13.9959H0.780233V0Z" fill="#FE6868"/>
<path d="M2.33663 0H1.5564V13.9959H2.33663V0Z" fill="#FE6868"/>
<path d="M11.8996 15.5007H3.89708V0H3.11685V15.5007H0.620919C0.277779 15.5007 0 15.778 0 16.1206V27.3801C0 27.7227 0.277779 28 0.620919 28H11.8996C12.2427 28 12.5205 27.7227 12.5205 27.3801V16.1206C12.5205 15.778 12.2427 15.5007 11.8996 15.5007ZM0.784318 27.2129V16.2837H3.11685V27.2129H0.784318ZM3.893 27.2129V16.2837H9.17489L3.90525 21.5811V21.6586L9.30561 27.217H3.89708L3.893 27.2129ZM11.7321 27.2129H10.3759L4.90607 21.5811L10.2043 16.2837H11.7321V27.2129Z" fill="white"/>
<path d="M7.00987 0H5.45349V13.9959H7.00987V0Z" fill="#BF67FF"/>
<path d="M9.35055 0H8.57031V13.9959H9.35055V0Z" fill="#BF67FF"/>
<path d="M11.6831 0H10.1267V13.9959H11.6831V0Z" fill="#BF67FF"/>
<path d="M13.2436 0H12.4633V13.9959H13.2436V0Z" fill="#7F40FE"/>
<path d="M14.804 0H14.0238V28H14.804V0Z" fill="#7F40FE"/>
<path d="M17.1406 0H16.3604V28H17.1406V0Z" fill="#7F40FE"/>
<path d="M19.4731 0H17.9167V28H19.4731V0Z" fill="#525CE5"/>
<path d="M21.8138 0H20.2574V28H21.8138V0Z" fill="#525CE5"/>
<path d="M23.3743 0H22.5941V28H23.3743V0Z" fill="#3C06E5"/>
<path d="M26.4871 0H24.9307V28H26.4871V0Z" fill="#3C06E5"/>
<path d="M28.0476 0H27.2673V28H28.0476V0Z" fill="#3C06E5"/>
</g>
<defs>
<clipPath id="clip0_1_4111">
<rect width="139" height="28" fill="white"/>
</clipPath>
</defs>
</svg>
