<svg width="97" height="86" viewBox="0 0 97 86" fill="none" xmlns="http://www.w3.org/2000/svg">
<path d="M29.5625 83.3125C27.7071 83.3125 26.2031 81.8085 26.2031 79.9531V73.2344C26.2031 71.379 27.7071 69.875 29.5625 69.875C31.4179 69.875 32.9219 71.379 32.9219 73.2344V79.9531C32.9219 81.8085 31.4179 83.3125 29.5625 83.3125ZM56.4375 83.3125C54.5821 83.3125 53.0781 81.8085 53.0781 79.9531V73.2344C53.0781 71.379 54.5821 69.875 56.4375 69.875C58.2929 69.875 59.7969 71.379 59.7969 73.2344V79.9531C59.7969 81.8085 58.2929 83.3125 56.4375 83.3125ZM56.0142 43H46.3594C44.504 43 43 41.496 43 39.6406C43 37.7852 44.504 36.2812 46.3594 36.2812H56.0142C57.8696 36.2812 59.3736 37.7852 59.3736 39.6406C59.3736 41.496 57.8696 43 56.0142 43Z" fill="#525CE5"/>
<path d="M43 53.0781C33.7382 53.0781 26.2031 45.5432 26.2031 36.2812V22.8438C26.2031 20.9884 27.7071 19.4844 29.5625 19.4844H56.4375C58.2929 19.4844 59.7969 20.9884 59.7969 22.8438V36.2812C59.7969 45.5432 52.262 53.0781 43 53.0781ZM32.9219 26.2031V36.2812C32.9219 41.8383 37.4429 46.3594 43 46.3594C48.5571 46.3594 53.0781 41.8383 53.0781 36.2812V26.2031H32.9219Z" fill="#9A68FF"/>
<path d="M56.4375 26.2031H33.7058C24.0116 26.2031 16.125 18.3165 16.125 8.62234V6.04688C16.125 4.19149 17.629 2.6875 19.4844 2.6875H42.2161C51.9102 2.6875 59.7969 10.5741 59.7969 20.2683V22.8438C59.7969 24.6991 58.2929 26.2031 56.4375 26.2031ZM22.8718 9.40625C23.2748 15.031 27.9801 19.4844 33.7058 19.4844H53.0502C52.6473 13.8596 47.9421 9.40625 42.2163 9.40625H22.8718ZM69.875 83.3125H16.125C14.2696 83.3125 12.7656 81.8085 12.7656 79.9531V75.166C12.7656 63.6371 21.6433 54.143 32.9219 53.1618V47.9198C32.9219 46.0644 34.4259 44.5604 36.2812 44.5604C38.1366 44.5604 39.6406 46.0644 39.6406 47.9198V56.4375C39.6406 58.2929 38.1366 59.7969 36.2812 59.7969H34.8535C26.379 59.7969 19.4844 66.6915 19.4844 75.166V76.5938H66.5156V75.166C66.5156 66.6915 59.621 59.7969 51.1465 59.7969H49.7188C47.8634 59.7969 46.3594 58.2929 46.3594 56.4375V47.9198C46.3594 46.0644 47.8634 44.5604 49.7188 44.5604C51.5741 44.5604 53.0781 46.0644 53.0781 47.9198V53.1618C64.3567 54.143 73.2344 63.6371 73.2344 75.166V79.9531C73.2344 81.8085 71.7304 83.3125 69.875 83.3125Z" fill="#9A68FF"/>
<circle cx="79.3503" cy="31.3593" r="5.93467" transform="rotate(47.4894 79.3503 31.3593)" fill="#FF2EDE"/>
<circle cx="79.1578" cy="15.5345" r="2.96733" transform="rotate(47.4894 79.1578 15.5345)" fill="#3A94FF"/>
<path d="M91.4967 17.2844L86.3867 16.9593L85.6637 22.6314L91.7336 22.7923L91.4967 17.2844Z" fill="#0AAB84"/>
</svg>
