<svg width="97" height="86" viewBox="0 0 97 86" fill="none" xmlns="http://www.w3.org/2000/svg">
<path d="M29.5625 49.7188C27.7071 49.7188 26.2031 48.2148 26.2031 46.3594V39.6406C26.2031 37.7852 27.7071 36.2812 29.5625 36.2812C31.4179 36.2812 32.9219 37.7852 32.9219 39.6406V46.3594C32.9219 48.2148 31.4179 49.7188 29.5625 49.7188ZM56.4375 49.7188C54.5821 49.7188 53.0781 48.2148 53.0781 46.3594V39.6406C53.0781 37.7852 54.5821 36.2812 56.4375 36.2812C58.2929 36.2812 59.7969 37.7852 59.7969 39.6406V46.3594C59.7969 48.2148 58.2929 49.7188 56.4375 49.7188ZM43 22.8438C41.1446 22.8438 39.6406 21.3398 39.6406 19.4844V12.7656C39.6406 10.9102 41.1446 9.40625 43 9.40625C44.8554 9.40625 46.3594 10.9102 46.3594 12.7656V19.4844C46.3594 21.3398 44.8554 22.8438 43 22.8438Z" fill="#525CE5"/>
<path d="M43 69.875H16.125C14.2696 69.875 12.7656 68.371 12.7656 66.5156V39.6406C12.7656 37.7852 14.2696 36.2812 16.125 36.2812H43C44.8554 36.2812 46.3594 37.7852 46.3594 39.6406V66.5156C46.3594 68.371 44.8554 69.875 43 69.875ZM19.4844 63.1562H39.6406V43H19.4844V63.1562Z" fill="#9A68FF"/>
<path d="M69.875 69.875H43C41.1446 69.875 39.6406 68.371 39.6406 66.5156V39.6406C39.6406 37.7852 41.1446 36.2812 43 36.2812H69.875C71.7304 36.2812 73.2344 37.7852 73.2344 39.6406V66.5156C73.2344 68.371 71.7304 69.875 69.875 69.875ZM46.3594 63.1562H66.5156V43H46.3594V63.1562Z" fill="#9A68FF"/>
<path d="M56.4375 43H29.5625C27.7071 43 26.2031 41.496 26.2031 39.6406V12.7656C26.2031 10.9102 27.7071 9.40625 29.5625 9.40625H56.4375C58.2929 9.40625 59.7969 10.9102 59.7969 12.7656V39.6406C59.7969 41.496 58.2929 43 56.4375 43ZM32.9219 36.2812H53.0781V16.125H32.9219V36.2812Z" fill="#9A68FF"/>
<path d="M79.9531 69.875H6.04688C4.19149 69.875 2.6875 68.371 2.6875 66.5156C2.6875 64.6602 4.19149 63.1562 6.04688 63.1562H79.9531C81.8085 63.1562 83.3125 64.6602 83.3125 66.5156C83.3125 68.371 81.8085 69.875 79.9531 69.875Z" fill="#525CE5"/>
<path d="M12.7656 76.5938C10.9102 76.5938 9.40625 75.0898 9.40625 73.2344V66.5156C9.40625 64.6602 10.9102 63.1562 12.7656 63.1562C14.621 63.1562 16.125 64.6602 16.125 66.5156V73.2344C16.125 75.0898 14.621 76.5938 12.7656 76.5938ZM73.2344 76.5938C71.379 76.5938 69.875 75.0898 69.875 73.2344V66.5156C69.875 64.6602 71.379 63.1562 73.2344 63.1562C75.0898 63.1562 76.5938 64.6602 76.5938 66.5156V73.2344C76.5938 75.0898 75.0898 76.5938 73.2344 76.5938Z" fill="#525CE5"/>
<circle cx="84.5931" cy="8.38533" r="5.93467" transform="rotate(47.4894 84.5931 8.38533)" fill="#532DB6"/>
<circle cx="70.1925" cy="17.5599" r="2.96733" transform="rotate(47.4894 70.1925 17.5599)" fill="#525CE5"/>
<path d="M82.5313 19.3098L77.4213 18.9847L76.6983 24.6568L82.7683 24.8177L82.5313 19.3098Z" fill="#2A007F"/>
</svg>
