<svg width="115" height="86" viewBox="0 0 115 86" fill="none" xmlns="http://www.w3.org/2000/svg">
<path d="M59.7969 61.4766H32.9219C31.0665 61.4766 29.5625 59.9726 29.5625 58.1172V31.2422C29.5625 29.3868 31.0665 27.8828 32.9219 27.8828H59.7969C61.6523 27.8828 63.1562 29.3868 63.1562 31.2422V58.1172C63.1562 59.9726 61.6523 61.4766 59.7969 61.4766ZM36.2812 54.7578H56.4375V34.6016H36.2812V54.7578Z" fill="#9A68FF"/>
<path d="M46.3594 41.3203C44.504 41.3203 43 39.8163 43 37.9609V31.2422C43 29.3868 44.504 27.8828 46.3594 27.8828C48.2148 27.8828 49.7188 29.3868 49.7188 31.2422V37.9609C49.7188 39.8163 48.2148 41.3203 46.3594 41.3203Z" fill="#9A68FF"/>
<path d="M73.2344 61.4766H12.7656C10.9102 61.4766 9.40625 59.9726 9.40625 58.1172V25.4473C9.40625 17.5284 15.8487 11.0859 23.7676 11.0859H62.2324C70.1513 11.0859 76.5938 17.5284 76.5938 25.4473V58.1172C76.5938 59.9726 75.0898 61.4766 73.2344 61.4766ZM16.125 54.7578H69.875V25.4473C69.875 21.2331 66.4466 17.8047 62.2324 17.8047H23.7676C19.5534 17.8047 16.125 21.2331 16.125 25.4473V54.7578Z" fill="#9A68FF"/>
<path d="M66.5156 74.9141H19.4844C10.2226 74.9141 2.6875 67.3792 2.6875 58.1172C2.6875 56.2618 4.19149 54.7578 6.04688 54.7578H79.9531C81.8085 54.7578 83.3125 56.2618 83.3125 58.1172C83.3125 67.3792 75.7776 74.9141 66.5156 74.9141ZM9.98188 61.4766C11.3683 65.387 15.1046 68.1953 19.4844 68.1953H66.5156C70.8954 68.1953 74.6315 65.387 76.0181 61.4766H9.98188Z" fill="#525CE5"/>
<path d="M32.9219 51.3984H26.2031C24.3477 51.3984 22.8438 49.8944 22.8438 48.0391C22.8438 46.1837 24.3477 44.6797 26.2031 44.6797H32.9219C34.7773 44.6797 36.2812 46.1837 36.2812 48.0391C36.2812 49.8944 34.7773 51.3984 32.9219 51.3984ZM32.9219 41.3203H22.8438C20.9884 41.3203 19.4844 39.8163 19.4844 37.9609C19.4844 36.1056 20.9884 34.6016 22.8438 34.6016H32.9219C34.7773 34.6016 36.2812 36.1056 36.2812 37.9609C36.2812 39.8163 34.7773 41.3203 32.9219 41.3203Z" fill="#9A68FF"/>
<circle cx="98.1648" cy="65.177" r="5.77614" transform="rotate(-136.768 98.1648 65.177)" fill="#FD44DF"/>
<circle cx="111.479" cy="55.2316" r="2.88807" transform="rotate(-136.768 111.479 55.2316)" fill="#1CBCFF"/>
<path d="M99.3766 54.4246L104.36 54.371L104.652 48.8134L98.7487 49.0958L99.3766 54.4246Z" fill="#5C31CA"/>
</svg>
