<svg width="104" height="86" viewBox="0 0 104 86" fill="none" xmlns="http://www.w3.org/2000/svg">
<path d="M48.0391 69.875H11.0859C9.23055 69.875 7.72656 68.371 7.72656 66.5156C7.72656 64.6602 9.23055 63.1562 11.0859 63.1562H48.0391C49.8944 63.1562 51.3984 64.6602 51.3984 66.5156C51.3984 68.371 49.8944 69.875 48.0391 69.875ZM68.1953 43H58.1172C56.2618 43 54.7578 41.496 54.7578 39.6406C54.7578 37.7852 56.2618 36.2812 58.1172 36.2812H68.1953C70.0507 36.2812 71.5547 37.7852 71.5547 39.6406C71.5547 41.496 70.0507 43 68.1953 43ZM74.9141 29.5625H58.1172C56.2618 29.5625 54.7578 28.0585 54.7578 26.2031C54.7578 24.3477 56.2618 22.8438 58.1172 22.8438H74.9141C76.7694 22.8438 78.2734 24.3477 78.2734 26.2031C78.2734 28.0585 76.7694 29.5625 74.9141 29.5625Z" fill="#525CE5"/>
<path d="M74.9141 83.3125H48.0391C46.1837 83.3125 44.6797 81.8085 44.6797 79.9531V53.0781C44.6797 51.2227 46.1837 49.7188 48.0391 49.7188H74.9141C76.7694 49.7188 78.2734 51.2227 78.2734 53.0781V79.9531C78.2734 81.8085 76.7694 83.3125 74.9141 83.3125ZM51.3984 76.5938H71.5547V56.4375H51.3984V76.5938Z" fill="#9A68FF"/>
<path d="M61.4766 63.1562C59.6212 63.1562 58.1172 61.6523 58.1172 59.7969V53.0781C58.1172 51.2227 59.6212 49.7188 61.4766 49.7188C63.3319 49.7188 64.8359 51.2227 64.8359 53.0781V59.7969C64.8359 61.6523 63.3319 63.1562 61.4766 63.1562Z" fill="#9A68FF"/>
<path d="M58.1172 83.3125H21.248C13.7922 83.3125 7.72656 77.2468 7.72656 69.791V16.209C7.72656 8.75319 13.7922 2.6875 21.248 2.6875H47.9551C55.4109 2.6875 61.4766 8.75319 61.4766 16.209V53.0781C61.4766 54.9335 59.9726 56.4375 58.1172 56.4375C56.2618 56.4375 54.7578 54.9335 54.7578 53.0781V16.209C54.7578 12.4579 51.7062 9.40625 47.9551 9.40625H21.248C17.497 9.40625 14.4453 12.4579 14.4453 16.209V69.791C14.4453 73.5421 17.497 76.5938 21.248 76.5938H58.1172C59.9726 76.5938 61.4766 78.0977 61.4766 79.9531C61.4766 81.8085 59.9726 83.3125 58.1172 83.3125Z" fill="#9A68FF"/>
<path d="M34.6016 22.8438C33.7164 22.8438 32.8513 22.4843 32.2265 21.8595C31.6 21.2346 31.2422 20.3696 31.2422 19.4844C31.2422 18.6009 31.6 17.7341 32.2265 17.1093C32.8513 16.4845 33.7164 16.125 34.6016 16.125C35.4868 16.125 36.3518 16.4845 36.9766 17.1093C37.6032 17.7341 37.9609 18.5992 37.9609 19.4844C37.9609 20.3696 37.6032 21.2346 36.9766 21.8595C36.3518 22.4843 35.4851 22.8438 34.6016 22.8438Z" fill="#9A68FF"/>
<circle cx="99.1391" cy="40.277" r="4.44061" transform="rotate(-136.768 99.1391 40.277)" fill="#31E66F"/>
<circle cx="100.368" cy="53.3707" r="2.88807" transform="rotate(-136.768 100.368 53.3707)" fill="#1CBCFF"/>
<path d="M87.0631 50.8269L91.3281 53.4049L94.5022 48.8336L89.3348 45.9658L87.0631 50.8269Z" fill="#C731CA"/>
</svg>
