<svg width="115" height="86" xmlns="http://www.w3.org/2000/svg">

 <g>
  <title>background</title>
  <rect fill="none" id="canvas_background" height="88" width="117" y="-1" x="-1"/>
 </g>
 <g>
  <title>Layer 1</title>
  <circle cx="108.042476" cy="6.714808" r="6.63251" transform="rotate(-136.76800537109375 108.04247283935544,6.714807510375973) " fill="#31E66F" id="svg_1"/>
  <circle cx="109.877476" cy="26.271808" r="4.31363" transform="rotate(-136.76800537109375 109.87747955322266,26.27181434631348) " fill="#1CBCFF" id="svg_2"/>
  <path d="m90.005476,22.472808l6.37,3.85l4.741,-6.828l-7.718,-4.283l-3.393,7.261z" fill="#C731CA" id="svg_3"/>
  <path d="m25.300476,55.417808l-21.225,0c-1.855,0 -3.359,-1.504 -3.359,-3.359c0,-1.856 1.504,-3.36 3.359,-3.36l21.225,0c2.778,0 5.039,-2.26 5.039,-5.039c0.001,-0.552 -0.089,-1.101 -0.266,-1.625c-0.172,-0.501 -0.421,-0.973 -0.74,-1.396c-0.375,-0.499 -0.604,-1.093 -0.66,-1.714c-0.057,-0.622 0.061,-1.247 0.34,-1.805c0.279,-0.558 0.708,-1.028 1.239,-1.356c0.531,-0.328 1.142,-0.502 1.767,-0.502l5.039,0c1.852,0 3.359,-1.507 3.359,-3.36c0,-0.896 -0.35,-1.739 -0.985,-2.374c-0.635,-0.635 -1.478,-0.985 -2.374,-0.985l-27.618,0c-1.855,0 -3.359,-1.504 -3.359,-3.359c0,-1.856 1.504,-3.36 3.359,-3.36l27.618,0c2.691,0 5.221,1.049 7.125,2.953c1.904,1.904 2.953,4.434 2.953,7.125c0,5.558 -4.521,10.079 -10.078,10.079l-0.12,0c0.08,0.554 0.12,1.115 0.12,1.679c0,6.484 -5.275,11.758 -11.758,11.758z" fill="#525CE5" id="svg_4"/>
  <path d="m77.370476,85.651808l-26.875,0c-1.855,0 -3.359,-1.503 -3.359,-3.359l0,-26.875c0,-1.855 1.504,-3.359 3.359,-3.359l26.875,0c1.856,0 3.359,1.504 3.359,3.359l0,26.875c0,1.856 -1.503,3.359 -3.359,3.359zm-23.515,-6.718l20.156,0l0,-20.156l-20.156,0l0,20.156z" fill="#9A68FF" id="svg_5"/>
  <path d="m63.933476,65.495808c-1.856,0 -3.36,-1.504 -3.36,-3.359l0,-6.719c0,-1.855 1.504,-3.359 3.36,-3.359c1.855,0 3.359,1.504 3.359,3.359l0,6.719c0,1.855 -1.504,3.359 -3.359,3.359z" fill="#9A68FF" id="svg_6"/>
  <path d="m40.417476,85.651808c-10.768,0 -20.891,-4.193 -28.505,-11.807c-7.614,-7.614 -11.807,-17.737 -11.807,-28.505c0,-10.768 4.193,-20.891 11.807,-28.505c7.614,-7.614 17.737,-11.807 28.505,-11.807c10.768,0 20.891,4.193 28.505,11.807c7.614,7.614 11.807,17.737 11.807,28.505c0,3.73 -0.51,7.428 -1.517,10.992c-0.504,1.785 -2.362,2.823 -4.146,2.319c-1.786,-0.504 -2.824,-2.361 -2.32,-4.146c0.839,-2.969 1.265,-6.053 1.265,-9.165c0,-18.524 -15.07,-33.594 -33.594,-33.594c-18.524,0 -33.594,15.07 -33.594,33.594c0,18.524 15.07,33.594 33.594,33.594c3.112,0 6.196,-0.426 9.165,-1.265c1.785,-0.503 3.642,0.535 4.146,2.32c0.505,1.786 -0.534,3.642 -2.319,4.146c-3.564,1.007 -7.262,1.517 -10.992,1.517z" fill="#9A68FF" id="svg_7"/>
 </g>
</svg>