<svg width="100" height="86" xmlns="http://www.w3.org/2000/svg">

 <g>
  <title>background</title>
  <rect fill="none" id="canvas_background" height="88" width="102" y="-1" x="-1"/>
 </g>
 <g>
  <title>Layer 1</title>
  <path id="svg_1" fill-opacity="0.02" fill="#161C21" d="m-90.4872,635.422l408.8372,-0.392l408.837,-0.197l408.833,0.197l408.86,0.392l-408.86,0.382l-408.833,0.196l-408.837,-0.196l-408.8372,-0.382z"/>
  <path id="svg_2" fill="#9A68FF" d="m53.781,80.344l-26.562,0c-1.834,0 -3.321,-1.487 -3.321,-3.321l0,-26.562c0,-1.834 1.487,-3.32 3.321,-3.32l26.562,0c1.834,0 3.321,1.486 3.321,3.32l0,26.562c0,1.834 -1.487,3.321 -3.321,3.321zm-23.242,-6.641l19.922,0l0,-19.922l-19.922,0l0,19.922z"/>
  <path id="svg_3" fill="#9A68FF" d="m40.5,60.422c-1.834,0 -3.32,-1.487 -3.32,-3.32l0,-6.641c0,-1.834 1.486,-3.32 3.32,-3.32c1.834,0 3.32,1.486 3.32,3.32l0,6.641c0,1.833 -1.486,3.32 -3.32,3.32z"/>
  <path id="svg_4" fill="#525CE5" d="m17.258,27.219c-1.834,0 -3.32,-1.487 -3.32,-3.321l0,-19.921c0,-1.834 1.486,-3.321 3.32,-3.321c1.834,0 3.32,1.487 3.32,3.321l0,19.921c0,1.834 -1.486,3.321 -3.32,3.321z"/>
  <path id="svg_5" fill="#525CE5" d="m23.898,13.938l-13.281,0c-1.834,0 -3.32,-1.487 -3.32,-3.321c0,-1.834 1.486,-3.32 3.32,-3.32l13.281,0c1.834,0 3.321,1.486 3.321,3.32c0,1.834 -1.487,3.321 -3.321,3.321zm39.844,13.281c-1.834,0 -3.32,-1.487 -3.32,-3.321l0,-19.921c0,-1.834 1.486,-3.321 3.32,-3.321c1.834,0 3.32,1.487 3.32,3.321l0,19.921c0,1.834 -1.486,3.321 -3.32,3.321z"/>
  <path id="svg_6" fill="#525CE5" d="m70.383,13.938l-13.281,0c-1.834,0 -3.321,-1.487 -3.321,-3.321c0,-1.834 1.487,-3.32 3.321,-3.32l13.281,0c1.834,0 3.32,1.486 3.32,3.32c0,1.834 -1.486,3.321 -3.32,3.321z"/>
  <path id="svg_7" fill="#9A68FF" d="m47.141,53.781l-13.282,0c-1.833,0 -3.32,-1.486 -3.32,-3.32l0,-13.281c0,-1.834 1.487,-3.321 3.32,-3.321l13.282,0c1.833,0 3.32,1.487 3.32,3.321l0,13.281c0,1.834 -1.487,3.32 -3.32,3.32zm-9.961,-6.64l6.64,0l0,-6.641l-6.64,0l0,6.641z"/>
  <path id="svg_8" fill="#525CE5" d="m70.383,60.422c-1.834,0 -3.321,-1.487 -3.321,-3.32l0,-5.686c0,-6.019 -4.896,-10.916 -10.915,-10.916l-31.294,0c-6.019,0 -10.915,4.897 -10.915,10.916l0,5.686c0,1.833 -1.487,3.32 -3.321,3.32c-1.834,0 -3.32,-1.487 -3.32,-3.32l0,-5.686c0,-9.681 7.875,-17.557 17.556,-17.557l31.294,0c9.681,0 17.556,7.876 17.556,17.557l0,5.686c0,1.833 -1.486,3.32 -3.32,3.32z"/>
  <path id="svg_9" fill="#9A68FF" d="m70.383,40.5l-59.766,0c-5.492,0 -9.961,-4.468 -9.961,-9.961c0,-5.492 4.469,-9.961 9.961,-9.961l16.606,0c3.114,-4.138 8.039,-6.64 13.277,-6.64c5.238,0 10.163,2.502 13.277,6.64l16.606,0c5.492,0 9.961,4.469 9.961,9.961c0,5.493 -4.469,9.961 -9.961,9.961zm-59.766,-13.281c-1.831,0 -3.32,1.489 -3.32,3.32c0,1.831 1.489,3.32 3.32,3.32l59.766,0c1.831,0 3.32,-1.489 3.32,-3.32c0,-1.831 -1.489,-3.32 -3.32,-3.32l-18.383,0c-0.582,0 -1.154,-0.153 -1.659,-0.444c-0.504,-0.291 -0.923,-0.709 -1.215,-1.213c-1.779,-3.074 -5.084,-4.984 -8.626,-4.984c-3.542,0 -6.847,1.91 -8.626,4.984c-0.292,0.504 -0.711,0.922 -1.215,1.213c-0.505,0.291 -1.077,0.444 -1.659,0.444l-18.383,0z"/>
  <circle id="svg_10" fill="#FD44DF" r="5.77614" cy="79.177" cx="82.165"/>
  <circle id="svg_11" fill="#1CBCFF" r="2.88807" cy="69.232" cx="95.479"/>
  <path id="svg_12" fill="#5C31CA" d="m83.377,68.425l4.983,-0.054l0.292,-5.557l-5.903,0.282l0.628,5.329z"/>
 </g>
</svg>