<svg width="81" height="82" xmlns="http://www.w3.org/2000/svg">

 <g>
  <title>background</title>
  <rect fill="none" id="canvas_background" height="84" width="83" y="-1" x="-1"/>
 </g>
 <g>
  <title>Layer 1</title>
  <path id="svg_1" fill-opacity="0.02" fill="#161C21" d="m-90.4872,635.422l408.8372,-0.392l408.837,-0.197l408.833,0.197l408.86,0.392l-408.86,0.382l-408.833,0.196l-408.837,-0.196l-408.8372,-0.382z"/>
  <g id="svg_2">
   <path id="svg_3" fill="#9A68FF" d="m17.025563,54.196105c-0.442,0 -0.878,-0.087 -1.286,-0.256c-0.408,-0.169 -0.778,-0.416 -1.09,-0.728c-0.312,-0.312 -0.559,-0.683 -0.728,-1.09c-0.169,-0.408 -0.256,-0.845 -0.256,-1.286l0,-37.121c0,-7.317 5.953,-13.269 13.27,-13.269l40.645,0c7.32,0 13.27,5.952 13.27,13.269l0,20.492c0,7.317 -5.95,13.27 -13.27,13.27l-36.325,0l-12.728,6.364c-0.467,0.233 -0.981,0.355 -1.502,0.355zm9.91,-47.032c-3.613,0 -6.551,2.939 -6.551,6.551l0,31.686l8.576,-4.288c0.466,-0.233 0.98,-0.355 1.502,-0.355l37.118,0c3.62,0 6.55,-2.938 6.55,-6.551l0,-20.492c0,-3.612 -2.93,-6.551 -6.55,-6.551l-40.645,0z"/>
   <path id="svg_4" fill="#9A68FF" d="m47.260563,81.070105c-0.66,0.001 -1.31,-0.196 -1.86,-0.564l-9.24,-6.154l-25.182,0c-5.928,0 -10.75,-4.823 -10.75,-10.75l0,-22.172c0,-5.928 4.822,-10.75 10.75,-10.75l6.046,0c1.856,0 3.36,1.504 3.36,3.359c0,1.856 -1.504,3.36 -3.36,3.36l-6.046,0c-2.223,0 -4.032,1.808 -4.032,4.031l0,22.172c0,2.222 1.809,4.031 4.032,4.031l26.202,0c0.66,0 1.31,0.196 1.86,0.564l4.86,3.237l0,-27.317c0,-1.855 1.5,-3.359 3.36,-3.359c1.85,0 3.36,1.504 3.36,3.359l0,33.594c0,0.891 -0.36,1.745 -0.99,2.375c-0.63,0.63 -1.48,0.984 -2.37,0.984z"/>
   <path id="svg_5" fill="#525CE5" d="m64.060563,20.602105l-33.598,0c-1.856,0 -3.36,-1.504 -3.36,-3.36c0,-1.855 1.504,-3.359 3.36,-3.359l33.598,0c1.85,0 3.36,1.504 3.36,3.359c0,1.856 -1.51,3.36 -3.36,3.36zm0,13.437l-33.598,0c-1.856,0 -3.36,-1.504 -3.36,-3.359c0,-1.856 1.504,-3.36 3.36,-3.36l33.598,0c1.85,0 3.36,1.504 3.36,3.36c0,1.855 -1.51,3.359 -3.36,3.359z"/>
   <circle id="svg_6" fill="#FF2EDE" transform="rotate(47.48939895629883 67.89065551757811,75.11714172363281) " r="5.93467" cy="75.117105" cx="67.890563"/>
   <circle id="svg_7" fill="#3A94FF" transform="rotate(47.48939895629883 67.70071411132814,59.293087005615234) " r="2.96733" cy="59.293105" cx="67.700563"/>
   <path id="svg_8" fill="#0AAB84" d="m80.040563,61.042105l-5.11,-0.325l-0.73,5.672l6.07,0.161l-0.23,-5.508z"/>
  </g>
 </g>
</svg>